<?xml version="1.0" encoding="utf-8"?>
<!-- Generator: Adobe Illustrator 19.2.1, SVG Export Plug-In . SVG Version: 6.00 Build 0)  -->
<svg version="1.1" id="Capa_1" xmlns="http://www.w3.org/2000/svg" xmlns:xlink="http://www.w3.org/1999/xlink" x="0px" y="0px"
	 viewBox="0 0 271.6 128.4" style="enable-background:new 0 0 271.6 128.4;" xml:space="preserve">
<style type="text/css">
	.st0{fill:#767474;}
	.st1{fill:#A3CD3B;}
	.st2{fill:#FEC917;}
	.st3{fill:#D1D1D1;}
	.st4{fill:#EB6E00;}
	.st5{fill:#DB4437;}
</style>
<rect x="24.3" y="25.7" class="st0" width="221.7" height="4.7"/>
<circle class="st1" cx="28.4" cy="28.1" r="28.4"/>
<circle class="st2" cx="98.6" cy="28.4" r="28.4"/>
<g>
	<g>
		<path class="st3" d="M98.6,128.4c15.5,0,28-12.5,28-28c0-26.7-28-61.6-28-61.6s-28,34.9-28,61.6C70.6,115.9,83.1,128.4,98.6,128.4
			z M98.6,85c8.4,0,15.1,6.8,15.1,15.1s-6.8,15.1-15.1,15.1s-15.1-6.8-15.1-15.1C83.4,91.7,90.2,85,98.6,85z"/>
	</g>
</g>
<circle class="st4" cx="168.2" cy="28.4" r="28.4"/>
<circle class="st5" cx="243.2" cy="28.4" r="28.4"/>
</svg>
