<?xml version="1.0" encoding="utf-8"?>
<!-- Generator: Adobe Illustrator 19.2.1, SVG Export Plug-In . SVG Version: 6.00 Build 0)  -->
<svg version="1.1" id="Capa_1" xmlns="http://www.w3.org/2000/svg" xmlns:xlink="http://www.w3.org/1999/xlink" x="0px" y="0px"
	 viewBox="0 0 305.3 270.7" style="enable-background:new 0 0 305.3 270.7;" xml:space="preserve">
<style type="text/css">
	.st0{fill:#4285F4;}
	.st1{fill:#FFFFFF;}
</style>
<g>
	<g>
		<path class="st0" d="M279,0H26.3C12,0,0,12,0,26.3V200c0,14.3,12,26.3,26.3,26.3H172l-23.4-27.2c-1.9-2.2-1.6-5.5,0.6-7.4
			s5.5-1.6,7.4,0.6l26.3,30.6l43.4,47.7v-44.3h10.5h31.6H279c14.3,0,26.3-12,26.3-26.3V26.3C305.3,12,293.3,0,279,0z"/>
		<path class="st1" d="M136.9,79h-79c-2.9,0-5.3-2.4-5.3-5.3s2.4-5.3,5.3-5.3h79c2.9,0,5.3,2.4,5.3,5.3S139.8,79,136.9,79z"/>
		<path class="st1" d="M236.9,121.1h-179c-2.9,0-5.3-2.4-5.3-5.3s2.4-5.3,5.3-5.3h179c2.9,0,5.3,2.4,5.3,5.3
			S239.8,121.1,236.9,121.1z"/>
		<path class="st1" d="M236.9,163.2h-179c-2.9,0-5.3-2.4-5.3-5.3s2.4-5.3,5.3-5.3h179c2.9,0,5.3,2.4,5.3,5.3
			S239.8,163.2,236.9,163.2z"/>
	</g>
</g>
</svg>
