<?xml version="1.0" encoding="utf-8"?>
<!-- Generator: Adobe Illustrator 19.2.1, SVG Export Plug-In . SVG Version: 6.00 Build 0)  -->
<svg version="1.1" id="Capa_1" xmlns="http://www.w3.org/2000/svg" xmlns:xlink="http://www.w3.org/1999/xlink" x="0px" y="0px"
	 viewBox="0 0 512 183.3" style="enable-background:new 0 0 512 183.3;" xml:space="preserve">
<style type="text/css">
	.st0{fill:#767474;}
	.st1{fill:#A3CD3B;}
	.st2{fill:#FEC917;}
	.st3{fill:#EB6E00;}
	.st4{fill:#DB4437;}
	.st5{fill:#D1D1D1;}
</style>
<rect x="145.3" y="59.5" class="st0" width="221.7" height="4.7"/>
<circle class="st1" cx="149.4" cy="61.9" r="28.4"/>
<circle class="st2" cx="219.6" cy="62.2" r="28.4"/>
<circle class="st3" cx="289.2" cy="62.2" r="28.4"/>
<circle class="st4" cx="364.2" cy="62.2" r="28.4"/>
<g>
	<g>
		<path class="st5" d="M364.2,162.2c15.5,0,28-12.5,28-28c0-26.7-28-61.6-28-61.6s-28,34.9-28,61.6
			C336.2,149.7,348.7,162.2,364.2,162.2z M364.2,118.8c8.4,0,15.1,6.8,15.1,15.1s-6.8,15.1-15.1,15.1s-15.1-6.8-15.1-15.1
			C349,125.5,355.8,118.8,364.2,118.8z"/>
	</g>
</g>
</svg>
